<svg width="3678" height="1025" xmlns="http://www.w3.org/2000/svg" xmlns:xlink="http://www.w3.org/1999/xlink" xml:space="preserve" overflow="hidden"><defs><clipPath id="clip0"><rect x="96" y="889" width="3678" height="1025"/></clipPath></defs><g clip-path="url(#clip0)" transform="translate(-96 -889)"><path d="M104.629 1407.76C127.253 1418.94 209.589 1504.32 257.558 1534.97 305.527 1565.63 343.044 1577.66 392.446 1591.7 441.847 1605.74 504.422 1616.05 553.967 1619.2 603.511 1622.36 641.028 1618.78 689.713 1610.61 738.398 1602.44 846.079 1570.21 846.079 1570.21 886.316 1559.75 908.511 1551.88 931.135 1547.86 953.759 1543.85 967.077 1544.14 981.825 1546.15 996.574 1548.15 1011.18 1553.17 1019.63 1559.9 1028.08 1566.63 1032.23 1576.66 1032.52 1586.54 1032.8 1596.43 1028.08 1607.46 1021.35 1619.2 1014.62 1630.95 1003.02 1645.71 992.135 1657.02 981.253 1668.34 971.086 1677.65 956.051 1687.11 941.016 1696.56 926.124 1704.3 901.924 1713.75 877.725 1723.21 817.297 1738.39 810.854 1743.84 804.41 1749.28 844.361 1747.42 863.262 1746.41 882.164 1745.41 903.213 1742.55 924.262 1737.82 945.311 1733.09 967.936 1726.22 989.558 1718.05 1011.18 1709.88 1033.8 1699.57 1053.99 1688.83 1074.18 1678.08 1089.08 1667.62 1110.7 1653.59 1132.32 1639.55 1158.95 1623.93 1183.73 1604.59 1208.5 1585.25 1234.7 1561.04 1259.33 1537.55 1283.96 1514.06 1309.88 1483.97 1331.5 1463.63 1353.12 1443.29 1371.17 1424.95 1389.06 1415.5 1406.96 1406.04 1425.72 1405.47 1438.9 1406.9 1452.07 1408.34 1462.09 1418.51 1468.11 1424.09 1474.12 1429.68 1474.69 1434.84 1474.98 1440.42 1475.27 1446.01 1472.4 1449.74 1469.83 1457.61 1467.25 1465.49 1466.39 1471.94 1459.52 1487.7 1452.64 1503.46 1443.62 1526.66 1428.59 1552.16 1413.55 1577.66 1392.21 1611.33 1369.3 1640.69 1346.39 1670.06 1320.19 1701.72 1291.12 1728.36 1262.05 1755.01 1230.12 1778.36 1194.9 1800.56 1159.67 1822.77 1125.73 1843.68 1079.77 1861.59 1033.8 1879.5 973.091 1899.55 919.107 1908 865.124 1916.46 804.41 1914.02 755.868 1912.3 707.325 1910.58 668.377 1905.71 627.854 1897.69 587.331 1889.67 550.96 1879.93 512.727 1864.17 474.495 1848.41 431.68 1823.77 398.459 1803.14 365.239 1782.51 340.467 1764.32 313.403 1740.4 286.34 1716.47 259.277 1688.11 236.079 1659.6 212.882 1631.1 193.265 1601.3 174.22 1569.35 155.176 1537.41 133.983 1494.72 121.812 1467.93 109.641 1441.14 82.0045 1396.59 104.629 1407.76Z" fill="#156082" fill-rule="evenodd"/><path d="M493 1181C493 1019.73 623.957 889 785.5 889 947.043 889 1078 1019.73 1078 1181 1078 1342.27 947.043 1473 785.5 1473 623.957 1473 493 1342.27 493 1181Z" fill="#159CEA" fill-rule="evenodd"/><path d="M3242.5 1088.51C3217.59 1088.51 3196.9 1097.32 3180.42 1114.94 3163.95 1132.57 3155.71 1155.17 3155.71 1182.74 3155.71 1210.51 3164.1 1233.35 3180.87 1251.27 3197.63 1269.19 3218.27 1278.15 3242.79 1278.15 3268.09 1278.15 3289.08 1269.34 3305.75 1251.71 3322.41 1234.09 3330.75 1211 3330.75 1182.44 3330.75 1154.48 3322.41 1131.83 3305.75 1114.5 3289.08 1097.17 3267.99 1088.51 3242.5 1088.51ZM2444.85 1088.51C2419.46 1088.51 2398.41 1097.17 2381.68 1114.5 2364.96 1131.83 2356.59 1154.48 2356.59 1182.44 2356.59 1211 2364.96 1234.09 2381.68 1251.71 2398.41 1269.34 2419.46 1278.15 2444.85 1278.15 2469.45 1278.15 2490.16 1269.19 2506.98 1251.27 2523.81 1233.35 2532.22 1210.51 2532.22 1182.74 2532.22 1155.17 2523.95 1132.57 2507.42 1114.94 2490.9 1097.32 2470.04 1088.51 2444.85 1088.51ZM1308.07 1088.51C1283.16 1088.51 1262.47 1097.32 1246 1114.94 1229.52 1132.57 1221.29 1155.17 1221.29 1182.74 1221.29 1210.51 1229.67 1233.35 1246.44 1251.27 1263.21 1269.19 1283.85 1278.15 1308.36 1278.15 1333.66 1278.15 1354.65 1269.34 1371.32 1251.71 1387.99 1234.09 1396.32 1211 1396.32 1182.44 1396.32 1154.48 1387.99 1131.83 1371.32 1114.5 1354.65 1097.17 1333.57 1088.51 1308.07 1088.51ZM2670.26 1022.34 2750.85 1022.34 2750.85 1343.73 2670.26 1343.73ZM1917.14 1022.34 1998.61 1022.34 1998.61 1177.13C1998.61 1207.26 2000.68 1228.18 2004.83 1239.9 2008.97 1251.61 2015.63 1260.72 2024.8 1267.22 2033.97 1273.72 2045.26 1276.97 2058.68 1276.97 2072.09 1276.97 2083.49 1273.77 2092.86 1267.37 2102.23 1260.97 2109.18 1251.57 2113.71 1239.16 2117.07 1229.9 2118.74 1210.11 2118.74 1179.78L2118.74 1022.34 2199.33 1022.34 2199.33 1158.52C2199.33 1214.64 2194.9 1253.04 2186.04 1273.72 2175.22 1298.93 2159.28 1318.28 2138.23 1331.77 2117.17 1345.26 2090.41 1352 2057.94 1352 2022.72 1352 1994.23 1344.12 1972.49 1328.37 1950.74 1312.61 1935.44 1290.66 1926.59 1262.49 1920.29 1243 1917.14 1207.55 1917.14 1156.15ZM3664.94 1014.07C3696.78 1014.07 3723.79 1025.19 3746 1047.45 3764.67 1066.35 3774 1094.32 3774 1131.34L3774 1343.73 3694.3 1343.73 3694.3 1202.99C3694.3 1164.63 3692.59 1139.16 3689.15 1126.57 3685.71 1113.98 3679.73 1104.39 3671.19 1097.8 3662.65 1091.21 3652.1 1087.92 3639.53 1087.92 3623.24 1087.92 3609.25 1093.37 3597.57 1104.29 3585.89 1115.21 3577.79 1130.31 3573.27 1149.58 3570.92 1159.62 3569.74 1181.35 3569.74 1214.79L3569.74 1343.73 3489.16 1343.73 3489.16 1022.34 3569.74 1022.34 3569.74 1055.27C3588.02 1039.86 3604.57 1029.14 3619.4 1023.11 3634.24 1017.08 3649.42 1014.07 3664.94 1014.07ZM3226.08 1014.07C3245.34 1014.07 3263.43 1017.71 3280.33 1025 3297.23 1032.28 3312.86 1043.21 3327.21 1057.79L3327.21 1022.34 3407.79 1022.34 3407.79 1343.73 3327.21 1343.73 3327.21 1309.76C3311.48 1324.73 3295.71 1335.51 3279.89 1342.1 3264.07 1348.7 3246.92 1352 3228.44 1352 3186.97 1352 3151.1 1335.9 3120.83 1303.7 3090.56 1271.5 3075.43 1231.48 3075.43 1183.62 3075.43 1134 3090.07 1093.33 3119.36 1061.63 3148.64 1029.92 3184.22 1014.07 3226.08 1014.07ZM2915.11 1014.07C2935.97 1014.07 2955.6 1018.65 2974 1027.8 2992.4 1036.96 3007.99 1050.1 3020.79 1067.24L2970.9 1117.16C2950.63 1097.07 2932.23 1087.03 2915.7 1087.03 2906.65 1087.03 2899.57 1088.95 2894.45 1092.79 2889.34 1096.63 2886.78 1101.41 2886.78 1107.12 2886.78 1111.45 2888.4 1115.44 2891.65 1119.08 2894.9 1122.72 2902.91 1127.7 2915.7 1134L2945.22 1148.77C2976.31 1164.13 2997.66 1179.78 3009.27 1195.74 3020.88 1211.69 3026.69 1230.4 3026.69 1251.86 3026.69 1280.42 3016.21 1304.24 2995.25 1323.35 2974.3 1342.45 2946.21 1352 2910.98 1352 2864.15 1352 2826.76 1333.69 2798.82 1297.06L2848.41 1243C2857.85 1254.03 2868.92 1262.94 2881.61 1269.73 2894.3 1276.53 2905.57 1279.92 2915.41 1279.92 2926.04 1279.92 2934.6 1277.36 2941.09 1272.24 2947.58 1267.12 2950.83 1261.21 2950.83 1254.52 2950.83 1242.11 2939.12 1230 2915.7 1218.19L2888.55 1204.6C2836.6 1178.41 2810.62 1145.62 2810.62 1106.23 2810.62 1080.83 2820.41 1059.11 2839.99 1041.1 2859.57 1023.08 2884.61 1014.07 2915.11 1014.07ZM1730.52 1014.07C1762.35 1014.07 1789.37 1025.19 1811.57 1047.45 1830.24 1066.35 1839.57 1094.32 1839.57 1131.34L1839.57 1343.73 1759.88 1343.73 1759.88 1202.99C1759.88 1164.63 1758.16 1139.16 1754.72 1126.57 1751.29 1113.98 1745.3 1104.39 1736.76 1097.8 1728.22 1091.21 1717.67 1087.92 1705.1 1087.92 1688.81 1087.92 1674.83 1093.37 1663.14 1104.29 1651.46 1115.21 1643.36 1130.31 1638.85 1149.58 1636.49 1159.62 1635.32 1181.35 1635.32 1214.79L1635.32 1343.73 1554.73 1343.73 1554.73 1022.34 1635.32 1022.34 1635.32 1055.27C1653.59 1039.86 1670.14 1029.14 1684.98 1023.11 1699.81 1017.08 1714.99 1014.07 1730.52 1014.07ZM1291.66 1014.07C1310.92 1014.07 1329 1017.71 1345.9 1025 1362.8 1032.28 1378.43 1043.21 1392.78 1057.79L1392.78 1022.34 1473.36 1022.34 1473.36 1343.73 1392.78 1343.73 1392.78 1309.76C1377.06 1324.73 1361.28 1335.51 1345.46 1342.1 1329.64 1348.7 1312.49 1352 1294.01 1352 1252.54 1352 1216.67 1335.9 1186.4 1303.7 1156.13 1271.5 1141 1231.48 1141 1183.62 1141 1134 1155.64 1093.33 1184.93 1061.63 1214.22 1029.92 1249.79 1014.07 1291.66 1014.07ZM2280.14 898.271 2360.14 898.271 2360.14 1057.79C2374.7 1043.21 2390.44 1032.28 2407.36 1025 2424.29 1017.71 2442.39 1014.07 2461.67 1014.07 2503.59 1014.07 2539.21 1029.92 2568.53 1061.63 2597.85 1093.33 2612.51 1134 2612.51 1183.62 2612.51 1231.48 2597.35 1271.5 2567.05 1303.7 2536.75 1335.9 2500.83 1352 2459.31 1352 2440.81 1352 2423.6 1348.7 2407.66 1342.1 2391.72 1335.51 2375.88 1324.73 2360.14 1309.76L2360.14 1343.73 2280.14 1343.73ZM2710.56 890C2724.68 890 2736.8 895.12 2746.91 905.361 2757.01 915.601 2762.06 928.008 2762.06 942.58 2762.06 956.956 2757.06 969.215 2747.05 979.357 2737.05 989.499 2725.08 994.57 2711.15 994.57 2696.82 994.57 2684.61 989.401 2674.5 979.062 2664.4 968.723 2659.34 956.169 2659.34 941.399 2659.34 927.22 2664.35 915.109 2674.35 905.065 2684.36 895.022 2696.43 890 2710.56 890Z" fill="#156082" fill-rule="evenodd"/></g></svg>